# xmcd CD database file
#
# Track frame offsets:
#	150
#	17690
#	31810
#	43745
#	55515
#	68502
#	80907
#	117720
#	149620
#	161172
#	171775
#	191760
#	212592
#	227367
#	241080
#
# Disc length: 3765 seconds
#
# Revision: 0
# Processed by: cddbd v1.5.1PL2 Copyright (c) Steve Scherf et al.
# Submitted via: CDex 1.51
#
DISCID=ca0eb30f
DTITLE=Various Artist - Jazz Gershwin
DYEAR=1900
DGENRE=Jazz
TTITLE0=Benny Goodman Sextet/I Got Rhythm
TTITLE1=Joe Carroll/Oh ! Lady, Be Good !
TTITLE2=Billie Holiday/Let's Call The Whole Thing Off
TTITLE3=Sarah Vaughan/Nice Work If You Can Get It
TTITLE4=Ruby Braff and Coleman Hawkins/'S Wonderful
TTITLE5=J. J. Johnson/Our Love Is Here To Stay
TTITLE6=Erroll Garner/The Man I Love
TTITLE7=Stan Getz and Bob Brookmeyer/Who Cares?
TTITLE8=Teddy Wilson/Bess, You Is My Woman Now
TTITLE9=Ella Fitzgerald/I've Got A Crush On You
TTITLE10=Miles Davis/It Ain't Necessarily So
TTITLE11=Thelonious Monk/Liza (All The Clouds'll Roll Away)
TTITLE12=Dexter Gordon/How Long Has This Been Going On?
TTITLE13=Marcus Roberts/Someone To Watch Over Me
TTITLE14=Roy Eldridge All-Stars/Somebody Loves Me
EXTD=
EXTT0=
EXTT1=
EXTT2=
EXTT3=
EXTT4=
EXTT5=
EXTT6=
EXTT7=
EXTT8=
EXTT9=
EXTT10=
EXTT11=
EXTT12=
EXTT13=
EXTT14=
PLAYORDER=
